<svg width="292" height="55" viewBox="0 0 292 55" fill="none" xmlns="http://www.w3.org/2000/svg">
<path d="M3.624 33.672L3.496 29.576L32.04 0.199997H36.008L16.04 20.872L14.184 22.856L3.624 33.672ZM0.808001 45V0.199997H4.072V45H0.808001ZM33.384 45L13.224 21.96L15.464 19.592L37.352 45H33.384ZM64.965 45V37.384L64.837 36.232V23.688C64.837 20.5733 63.9837 18.2053 62.277 16.584C60.613 14.9627 58.1597 14.152 54.917 14.152C52.613 14.152 50.4583 14.5573 48.453 15.368C46.4903 16.136 44.805 17.1387 43.397 18.376L41.797 16.072C43.461 14.5787 45.4663 13.4267 47.813 12.616C50.1597 11.7627 52.613 11.336 55.173 11.336C59.3117 11.336 62.4903 12.3813 64.709 14.472C66.9277 16.5627 68.037 19.6773 68.037 23.816V45H64.965ZM52.933 45.256C50.4583 45.256 48.3037 44.872 46.469 44.104C44.677 43.2933 43.2903 42.1627 42.309 40.712C41.3703 39.2613 40.901 37.5973 40.901 35.72C40.901 34.0133 41.285 32.4773 42.053 31.112C42.8637 29.704 44.1863 28.5733 46.021 27.72C47.8557 26.824 50.309 26.376 53.381 26.376H65.669V28.872H53.445C49.989 28.872 47.557 29.512 46.149 30.792C44.7837 32.072 44.101 33.672 44.101 35.592C44.101 37.7253 44.9117 39.432 46.533 40.712C48.1543 41.992 50.437 42.632 53.381 42.632C56.197 42.632 58.565 41.992 60.485 40.712C62.4477 39.432 63.8983 37.576 64.837 35.144L65.733 37.32C64.837 39.752 63.301 41.6933 61.125 43.144C58.9917 44.552 56.261 45.256 52.933 45.256ZM81.2215 45V11.592H84.2935V20.744L83.9735 19.72C84.9122 17.032 86.4908 14.9627 88.7095 13.512C90.9282 12.0613 93.7015 11.336 97.0295 11.336V14.472C96.9015 14.472 96.7735 14.472 96.6455 14.472C96.5175 14.4293 96.3895 14.408 96.2615 14.408C92.5495 14.408 89.6482 15.5813 87.5575 17.928C85.4668 20.232 84.4215 23.4533 84.4215 27.592V45H81.2215ZM147.447 11.336C150.135 11.336 152.46 11.8693 154.423 12.936C156.428 13.96 157.985 15.5387 159.095 17.672C160.204 19.7627 160.759 22.3653 160.759 25.48V45H157.559V25.736C157.559 21.9813 156.641 19.1227 154.807 17.16C152.972 15.1973 150.412 14.216 147.127 14.216C144.609 14.216 142.433 14.7493 140.599 15.816C138.764 16.8827 137.356 18.376 136.375 20.296C135.393 22.216 134.903 24.52 134.903 27.208V45H131.703V25.736C131.703 21.9813 130.785 19.1227 128.951 17.16C127.116 15.1973 124.556 14.216 121.271 14.216C118.753 14.216 116.577 14.7493 114.743 15.816C112.908 16.8827 111.5 18.376 110.519 20.296C109.537 22.216 109.047 24.52 109.047 27.208V45H105.847V11.592H108.919V20.808L108.47 19.784C109.452 17.1813 111.095 15.1333 113.399 13.64C115.703 12.104 118.476 11.336 121.719 11.336C125.047 11.336 127.841 12.1893 130.103 13.896C132.407 15.56 133.857 18.056 134.455 21.384L133.367 20.936C134.263 18.0773 135.948 15.7733 138.423 14.024C140.897 12.232 143.905 11.336 147.447 11.336ZM195.028 45V37.384L194.9 36.232V23.688C194.9 20.5733 194.046 18.2053 192.34 16.584C190.676 14.9627 188.222 14.152 184.98 14.152C182.676 14.152 180.521 14.5573 178.516 15.368C176.553 16.136 174.868 17.1387 173.46 18.376L171.86 16.072C173.524 14.5787 175.529 13.4267 177.876 12.616C180.222 11.7627 182.676 11.336 185.236 11.336C189.374 11.336 192.553 12.3813 194.772 14.472C196.99 16.5627 198.1 19.6773 198.1 23.816V45H195.028ZM182.996 45.256C180.521 45.256 178.366 44.872 176.532 44.104C174.74 43.2933 173.353 42.1627 172.372 40.712C171.433 39.2613 170.964 37.5973 170.964 35.72C170.964 34.0133 171.348 32.4773 172.116 31.112C172.926 29.704 174.249 28.5733 176.084 27.72C177.918 26.824 180.372 26.376 183.444 26.376H195.732V28.872H183.508C180.052 28.872 177.62 29.512 176.212 30.792C174.846 32.072 174.164 33.672 174.164 35.592C174.164 37.7253 174.974 39.432 176.595 40.712C178.217 41.992 180.5 42.632 183.444 42.632C186.26 42.632 188.628 41.992 190.548 40.712C192.51 39.432 193.961 37.576 194.9 35.144L195.796 37.32C194.9 39.752 193.364 41.6933 191.188 43.144C189.054 44.552 186.324 45.256 182.996 45.256ZM226.964 16.84C227.092 19.144 227.22 21.4693 227.348 23.816C227.519 26.1627 227.561 28.488 227.476 30.792C227.391 33.0533 227.156 35.272 226.772 37.448C226.431 39.624 225.833 41.7147 224.98 43.72C224.127 45.6827 222.975 47.5173 221.524 49.224C220.116 50.9307 218.324 52.4667 216.148 53.832C215.807 54.0453 215.423 54.1733 214.996 54.216C214.612 54.2587 214.228 54.2373 213.844 54.152C213.46 54.1093 213.119 54.0027 212.82 53.832C212.521 53.704 212.329 53.512 212.244 53.256C212.116 52.872 212.18 52.4453 212.436 51.976C212.692 51.5067 213.119 51.016 213.716 50.504C215.593 49.096 217.172 47.6027 218.452 46.024C219.732 44.4453 220.756 42.7387 221.524 40.904C222.292 39.0693 222.783 37.0853 222.996 34.952C223.252 32.776 223.252 30.408 222.996 27.848C222.484 28.488 221.887 29.1493 221.204 29.832C220.521 30.5147 219.796 31.1333 219.028 31.688C218.26 32.2 217.471 32.648 216.66 33.032C215.849 33.3733 215.081 33.544 214.356 33.544C213.759 33.544 213.161 33.416 212.564 33.16C211.967 32.904 211.369 32.4133 210.772 31.688C210.089 30.792 209.471 29.7893 208.916 28.68C208.404 27.528 207.956 26.4187 207.572 25.352C207.188 24.2853 206.868 23.3253 206.612 22.472C206.399 21.6187 206.271 21.0213 206.228 20.68C206.143 20.2533 206.143 19.848 206.228 19.464C206.313 19.08 206.591 18.8453 207.06 18.76C207.7 18.632 208.297 18.6747 208.852 18.888C209.407 19.1013 209.791 19.4427 210.004 19.912C210.175 20.3813 210.409 21.1067 210.708 22.088C211.007 23.0693 211.369 24.0507 211.796 25.032C212.223 25.9707 212.671 26.8027 213.14 27.528C213.652 28.2533 214.185 28.616 214.74 28.616C215.38 28.616 216.127 28.296 216.98 27.656C217.876 27.016 218.729 26.184 219.54 25.16C220.351 24.136 221.033 23.0053 221.588 21.768C222.185 20.488 222.484 19.2507 222.484 18.056C222.484 17.8 222.527 17.5013 222.612 17.16C222.697 16.8187 222.825 16.4987 222.996 16.2C223.167 15.8587 223.359 15.5813 223.572 15.368C223.828 15.112 224.084 14.9627 224.34 14.92C225.023 14.8347 225.62 15.0267 226.132 15.496C226.687 15.9227 226.964 16.3707 226.964 16.84ZM247.844 14.664C249.124 15.1333 250.191 15.8373 251.044 16.776C251.94 17.7147 252.623 18.7813 253.092 19.976C253.561 21.128 253.817 22.3227 253.86 23.56C253.945 24.7973 253.817 25.9493 253.476 27.016C253.007 28.2107 252.409 29.384 251.684 30.536C250.959 31.688 250.127 32.712 249.188 33.608C248.249 34.504 247.183 35.2293 245.988 35.784C244.793 36.3387 243.471 36.616 242.02 36.616C240.271 36.616 238.799 36.2107 237.604 35.4C236.409 34.5893 235.471 33.544 234.788 32.264C234.105 30.984 233.657 29.5333 233.444 27.912C233.273 26.2907 233.316 24.6693 233.572 23.048C233.743 21.8533 234.02 20.7013 234.404 19.592C234.831 18.44 235.364 17.4373 236.004 16.584C236.644 15.688 237.369 14.9627 238.18 14.408C239.033 13.8533 239.993 13.576 241.06 13.576C241.657 13.576 242.404 13.704 243.3 13.96C244.196 14.1733 245.028 14.4933 245.796 14.92C246.351 14.408 247.033 14.3227 247.844 14.664ZM245.412 19.336C244.943 19.0373 244.388 18.6533 243.748 18.184C243.151 17.672 242.617 17.416 242.148 17.416C241.636 17.416 241.124 17.6507 240.612 18.12C240.143 18.5893 239.716 19.144 239.332 19.784C238.991 20.3813 238.692 21 238.436 21.64C238.18 22.28 238.009 22.792 237.924 23.176C237.796 23.816 237.711 24.584 237.668 25.48C237.625 26.376 237.689 27.272 237.86 28.168C238.031 29.0213 238.351 29.8107 238.82 30.536C239.332 31.2187 240.079 31.7093 241.06 32.008C241.657 32.1787 242.361 32.1787 243.172 32.008C243.983 31.7947 244.772 31.432 245.54 30.92C246.351 30.408 247.097 29.7253 247.78 28.872C248.505 28.0187 249.06 27.0373 249.444 25.928C249.871 24.6907 249.871 23.4107 249.444 22.088C249.06 20.7227 248.249 19.7413 247.012 19.144C246.713 19.3573 246.415 19.464 246.116 19.464C245.817 19.464 245.583 19.4213 245.412 19.336ZM270.647 19.336C270.988 19.8053 271.308 20.4027 271.607 21.128C271.948 21.8107 272.204 22.5147 272.375 23.24C272.631 24.392 272.908 25.6507 273.207 27.016C273.548 28.3387 273.868 29.7253 274.167 31.176C274.508 32.6267 274.807 34.0987 275.063 35.592C275.362 37.0853 275.618 38.5147 275.831 39.88C276.087 41.7573 275.938 43.5493 275.383 45.256C274.871 47.0053 273.996 48.5627 272.759 49.928C271.522 51.2933 269.986 52.3813 268.151 53.192C266.316 54.0027 264.247 54.4507 261.943 54.536C261.431 54.4933 260.898 54.2373 260.343 53.768C259.788 53.3413 259.511 52.8933 259.511 52.424C259.468 51.9547 259.682 51.5707 260.151 51.272C260.663 51.016 261.175 50.8453 261.687 50.76C262.583 50.6747 263.5 50.4827 264.439 50.184C265.42 49.928 266.338 49.544 267.191 49.032C268.044 48.52 268.812 47.9013 269.495 47.176C270.22 46.4507 270.775 45.5973 271.159 44.616C271.458 43.848 271.607 42.9093 271.607 41.8C271.607 40.648 271.522 39.5173 271.351 38.408C271.223 37.2987 271.031 36.2533 270.775 35.272C270.562 34.248 270.37 33.48 270.199 32.968C269.9 33.2667 269.516 33.5867 269.047 33.928C268.62 34.2693 268.13 34.5893 267.575 34.888C267.02 35.1867 266.402 35.4213 265.719 35.592C265.079 35.7627 264.418 35.8267 263.735 35.784C263.01 35.7413 262.327 35.4853 261.687 35.016C261.09 34.5467 260.556 33.9493 260.087 33.224C259.618 32.456 259.234 31.5813 258.935 30.6C258.679 29.6187 258.551 28.5947 258.551 27.528C258.636 24.968 259.276 22.7067 260.471 20.744C261.708 18.7387 263.671 17.1813 266.359 16.072C266.572 16.0293 266.85 15.9867 267.191 15.944C267.575 15.9013 267.959 15.9013 268.343 15.944C268.727 15.944 269.09 15.9867 269.431 16.072C269.815 16.1573 270.135 16.2853 270.391 16.456C270.86 16.7973 271.095 17.288 271.095 17.928C271.095 18.568 270.946 19.0373 270.647 19.336ZM262.583 28.104C262.583 28.5733 262.626 29.1067 262.711 29.704C262.796 30.2587 263.074 30.664 263.543 30.92C264.055 31.2187 264.674 31.2613 265.399 31.048C266.167 30.8347 266.871 30.472 267.511 29.96C268.108 29.4907 268.492 28.9787 268.663 28.424C268.876 27.8267 268.876 27.0373 268.663 26.056C268.45 25.0747 268.215 24.0507 267.959 22.984C267.703 21.9173 267.532 20.9573 267.447 20.104C266.935 20.36 266.38 20.7227 265.783 21.192C265.228 21.6613 264.716 22.2587 264.247 22.984C263.778 23.6667 263.372 24.4347 263.031 25.288C262.732 26.1413 262.583 27.08 262.583 28.104ZM291.439 10.888C291.353 11.3147 291.055 11.5493 290.543 11.592C290.031 11.6347 289.604 11.656 289.263 11.656C288.196 11.6987 287.087 11.8053 285.935 11.976C284.825 12.1467 283.652 12.4027 282.415 12.744C281.903 12.9147 281.348 12.8507 280.751 12.552C280.153 12.2533 279.791 11.656 279.663 10.76C279.663 10.4187 279.791 10.1413 280.047 9.928C280.303 9.71466 280.601 9.52266 280.943 9.352C281.497 9.096 282.159 8.88266 282.927 8.712C283.695 8.49866 284.463 8.34933 285.231 8.264C286.041 8.17867 286.809 8.15733 287.535 8.2C288.26 8.2 288.857 8.264 289.327 8.392C290.009 8.60533 290.543 8.92533 290.927 9.352C291.353 9.77866 291.524 10.2907 291.439 10.888ZM289.967 32.2C290.265 32.8827 290.415 33.6293 290.415 34.44C290.457 35.208 290.244 35.7413 289.775 36.04C289.177 36.424 288.537 36.4027 287.855 35.976C287.172 35.5493 286.66 34.9733 286.319 34.248C285.849 33.352 285.487 32.264 285.231 30.984C284.975 29.6613 284.783 28.36 284.655 27.08C284.527 25.8 284.441 24.6053 284.399 23.496C284.399 22.3867 284.399 21.5547 284.399 21C284.441 20.4027 284.612 19.848 284.911 19.336C285.209 18.824 285.593 18.5253 286.062 18.44C286.831 18.4827 287.449 18.8453 287.919 19.528C288.388 20.168 288.601 20.9787 288.559 21.96C288.559 22.728 288.58 23.5813 288.623 24.52C288.665 25.4587 288.751 26.3973 288.879 27.336C289.007 28.2747 289.156 29.192 289.327 30.088C289.497 30.9413 289.711 31.6453 289.967 32.2Z" fill="white"/>
</svg>
